<svg role="img" aria-hidden="true" focusable="false" xmlns="http://www.w3.org/2000/svg" viewBox="0 0 500 500"><path fill="#faa310" d="M134.01 122.57H19.37C9.22 122.57 1 130.8 1 140.94v224.78c0 10.15 8.23 18.37 18.37 18.37h94.38v80.31c0 6.35 5.69 9.04 9.43 3.95l70.36-84.26h165.24c10.15 0 18.37-8.23 18.37-18.37 0-134.29-108.86-243.15-243.15-243.15ZM313.63 151.91l115.08-10.13c9.08 1.5 13.34 7.84 10.57 13.25l-51.1 102.13c-17.03-44.67-41.62-78.08-74.56-105.25ZM389.96 262.03l104.06 40.94c5.68 2.17 6.76 9.73 1.91 13.41l-91.43 68.06c6-24.9 1.59-76.8-14.54-122.4ZM195.36 97.96l92.76-67.44c4.88-3.62 11.84-.47 12.33 5.59l9.14 112.62c-35.94-27.25-70.73-41.86-114.24-50.77Z"/><path fill="#fff" d="M301.37 295.83c3.91.14 7.28 2.13 9.42 5.05-2.28-12.48-12.97-22.14-26.17-22.62-15.25-.55-28.06 11.37-28.61 26.62-.55 15.25 11.37 28.06 26.62 28.61 11.46.41 21.54-6.21 26.07-16-2.23 1.84-5.09 2.95-8.21 2.83-6.76-.24-12.05-5.92-11.81-12.69.24-6.76 5.92-12.05 12.69-11.81Z" data-name="eye r"/><path fill="#fff" d="M228.6 295.83c3.91.14 7.28 2.13 9.42 5.05-2.28-12.48-12.97-22.14-26.17-22.62-15.25-.55-28.06 11.37-28.61 26.62-.55 15.25 11.37 28.06 26.62 28.61 11.46.41 21.54-6.21 26.07-16-2.23 1.84-5.09 2.95-8.21 2.83-6.76-.24-12.05-5.92-11.81-12.69.24-6.76 5.92-12.05 12.69-11.81Z" data-name="eye l"/></svg>